<svg xmlns="http://www.w3.org/2000/svg" viewBox="0 0 359 387">
    <defs>
        <style>
            .o {
            fill: #13141d;
            stroke: #293045;
            stroke-width: 2
            }

            .t {
            transform-box: fill-box;
            transform-origin: center
            }

            .c {
            fill: #293045
            }
        </style>
        <g id="r" class="o">
            <path d="M21 99a1 1 0 0 1 6 0v20a1 1 0 0 1-6 0v-20zm-4 1a1 1 0 0 1-6 0v-14a1 1 0 0 1 6 0v14m14-1a1 1 0 0 0 6 0v-10a1 1 0 0 0-6 0v10"/>
            <path d="M24 86c-19-23 19-23 0 0z"/>
            <path d="M24 2c-20 20 -17 36 -16 47l-4 6c-2 3-3 6-2 9l4 12c1 3 4 3 6 0l4-6h16l4 6c2 3 5 3 6 0l4-12c1-3 0-6-2-9l-4-6c1-11 4-27-16-47z"/>
            <circle cx="24" cy="34" r="9" class="c"/>
        </g>
        <path id="s" d="m0 0a18 18 180 1 1 36 0 h-8a10 10 180 1 0-20 0" class="t c"/>
    </defs>
    <use href="#r" class="t" transform="translate(152 100) rotate(7)"/>
    <use href="#r" class="t" transform="translate(52 215) rotate(232)"/>
    <use href="#r" class="t" transform="translate(212 270) rotate(97)"/>
    <use href="#r" class="t" transform="translate(22-20) rotate(312)"/>
    <use href="#r" class="t" transform="translate(282 60) rotate(312)"/>
    <circle cx="42" cy="150" r="14" style="fill:none;stroke:#293045;stroke-width:8"/>
    <use href="#s" transform="translate(217 36) rotate(75)"/>
    <use href="#s" transform="translate(235 254) rotate(345)"/>
    <path d="M120 270l7 9h33v-9" class="t c" transform="rotate(300)"/>
    <path d="M94 355l7 9h33v-9" class="t c" transform="rotate(188)"/>
    <path d="M317 235l7 9h33v-9" class="t c" transform="rotate(142)"/>
    <circle cx="135" cy="53" r="6" class="c"/>
    <circle cx="320" cy="320" r="6" class="c"/>
</svg>